<?xml version="1.0" encoding="UTF-8"?>
<!DOCTYPE svg PUBLIC "-//W3C//DTD SVG 1.1//EN" "http://www.w3.org/Graphics/SVG/1.1/DTD/svg11.dtd">
<svg xmlns="http://www.w3.org/2000/svg" version="1.1" width="268px" height="209px" style="shape-rendering:geometricPrecision; text-rendering:geometricPrecision; image-rendering:optimizeQuality; fill-rule:evenodd; clip-rule:evenodd" xmlns:xlink="http://www.w3.org/1999/xlink">
<g><path style="opacity:1" fill="#d0acc2" d="M 103.5,14.5 C 103.5,14.1667 103.5,13.8333 103.5,13.5C 111.528,13.169 119.528,13.5023 127.5,14.5C 127.167,14.8333 126.833,15.1667 126.5,15.5C 90.3011,35.5321 54.4678,56.1988 19,77.5C 18.5065,75.8659 18.3398,74.1992 18.5,72.5C 20.2132,71.3646 20.8799,69.698 20.5,67.5C 21.9063,67.0269 22.573,66.0269 22.5,64.5C 22.8449,61.8021 24.1782,59.8021 26.5,58.5C 26.0805,60.0936 25.4138,61.5936 24.5,63C 25.5772,64.5426 26.9106,64.5426 28.5,63C 54.3197,47.5879 80.3197,32.4212 106.5,17.5C 107.354,16.4783 108.354,15.6449 109.5,15C 107.527,14.5045 105.527,14.3379 103.5,14.5 Z"/></g>
<g><path style="opacity:1" fill="#c9b0c2" d="M 103.5,13.5 C 114.402,12.1814 125.402,12.1814 136.5,13.5C 138.374,14.2852 140.374,14.9518 142.5,15.5C 142.586,16.4959 142.252,17.3292 141.5,18C 135.731,21.0551 130.065,24.3884 124.5,28C 116.117,32.3419 107.784,36.6752 99.5,41C 90.4482,46.6722 81.4482,52.3389 72.5,58C 68.271,59.0678 64.6044,61.0678 61.5,64C 46.2121,71.9777 31.2121,80.4777 16.5,89.5C 16.4672,85.1311 16.8005,80.7978 17.5,76.5C 17.2322,74.901 17.5655,73.5676 18.5,72.5C 18.3398,74.1992 18.5065,75.8659 19,77.5C 54.4678,56.1988 90.3011,35.5321 126.5,15.5C 126.833,15.1667 127.167,14.8333 127.5,14.5C 119.528,13.5023 111.528,13.169 103.5,13.5 Z"/></g>
<g><path style="opacity:1" fill="#90b0a5" d="M 136.5,13.5 C 139.187,13.3359 141.854,13.5026 144.5,14C 145.416,14.2784 146.082,14.7784 146.5,15.5C 145.167,15.5 143.833,15.5 142.5,15.5C 140.374,14.9518 138.374,14.2852 136.5,13.5 Z"/></g>
<g><path style="opacity:1" fill="#d6a9c1" d="M 98.5,14.5 C 100.167,14.5 101.833,14.5 103.5,14.5C 105.527,14.3379 107.527,14.5045 109.5,15C 108.354,15.6449 107.354,16.4783 106.5,17.5C 80.3197,32.4212 54.3197,47.5879 28.5,63C 26.9106,64.5426 25.5772,64.5426 24.5,63C 25.4138,61.5936 26.0805,60.0936 26.5,58.5C 27.9063,58.0269 28.573,57.0269 28.5,55.5C 28.8333,54.5 29.5,53.8333 30.5,53.5C 31.9063,53.0269 32.573,52.0269 32.5,50.5C 35.4274,49.2427 37.7607,47.2427 39.5,44.5C 40.9599,42.5372 42.6266,40.7038 44.5,39C 49.7235,35.5586 55.0569,32.3919 60.5,29.5C 62.0269,29.573 63.0269,28.9063 63.5,27.5C 65.9296,25.6185 68.5962,24.2852 71.5,23.5C 73.698,23.8799 75.3646,23.2132 76.5,21.5C 79.1522,21.5905 81.4855,20.9238 83.5,19.5C 86.3973,18.871 89.064,17.871 91.5,16.5C 94.2282,16.8294 96.5615,16.1628 98.5,14.5 Z"/></g>
<g><path style="opacity:1" fill="#afabaf" d="M 98.5,14.5 C 96.5615,16.1628 94.2282,16.8294 91.5,16.5C 93.5145,15.0762 95.8478,14.4095 98.5,14.5 Z"/></g>
<g><path style="opacity:1" fill="#c5b4c4" d="M 142.5,15.5 C 143.833,15.5 145.167,15.5 146.5,15.5C 147.209,16.404 148.209,16.7373 149.5,16.5C 150.234,17.7079 150.567,19.0413 150.5,20.5C 146.364,20.3724 143.031,21.8724 140.5,25C 132.394,29.7069 124.061,34.0402 115.5,38C 113.268,40.9514 110.268,42.618 106.5,43C 105.833,44 105.167,45 104.5,46C 101.756,46.8035 99.0891,47.8035 96.5,49C 93.5476,51.1514 90.5476,53.3181 87.5,55.5C 80.8808,58.4782 74.2141,61.1448 67.5,63.5C 59.2546,66.4451 52.2546,71.1117 46.5,77.5C 39.7226,81.767 33.056,86.267 26.5,91C 22.5505,91.597 19.3838,93.4303 17,96.5C 16.5034,94.1902 16.3367,91.8568 16.5,89.5C 31.2121,80.4777 46.2121,71.9777 61.5,64C 64.6044,61.0678 68.271,59.0678 72.5,58C 81.4482,52.3389 90.4482,46.6722 99.5,41C 107.784,36.6752 116.117,32.3419 124.5,28C 130.065,24.3884 135.731,21.0551 141.5,18C 142.252,17.3292 142.586,16.4959 142.5,15.5 Z"/></g>
<g><path style="opacity:1" fill="#b3aab0" d="M 91.5,16.5 C 89.064,17.871 86.3973,18.871 83.5,19.5C 85.6174,17.3455 88.284,16.3455 91.5,16.5 Z"/></g>
<g><path style="opacity:1" fill="#c2b6c4" d="M 149.5,16.5 C 150.167,16.5 150.833,16.5 151.5,16.5C 152.167,17.1667 152.833,17.8333 153.5,18.5C 152.525,20.1927 151.192,21.6927 149.5,23C 140.997,27.084 132.664,31.4174 124.5,36C 116.802,41.8517 108.468,46.6851 99.5,50.5C 96.7255,53.1636 93.3921,54.997 89.5,56C 88.8333,57.3333 87.8333,58.3333 86.5,59C 87.056,59.3826 87.3893,59.8826 87.5,60.5C 80.6303,60.2367 73.9636,61.2367 67.5,63.5C 74.2141,61.1448 80.8808,58.4782 87.5,55.5C 90.5476,53.3181 93.5476,51.1514 96.5,49C 99.0891,47.8035 101.756,46.8035 104.5,46C 105.167,45 105.833,44 106.5,43C 110.268,42.618 113.268,40.9514 115.5,38C 124.061,34.0402 132.394,29.7069 140.5,25C 143.031,21.8724 146.364,20.3724 150.5,20.5C 150.567,19.0413 150.234,17.7079 149.5,16.5 Z"/></g>
<g><path style="opacity:1" fill="#92b2a8" d="M 151.5,16.5 C 153.898,16.2594 155.898,16.9261 157.5,18.5C 156.167,18.5 154.833,18.5 153.5,18.5C 152.833,17.8333 152.167,17.1667 151.5,16.5 Z"/></g>
<g><path style="opacity:1" fill="#beb8c4" d="M 153.5,18.5 C 154.833,18.5 156.167,18.5 157.5,18.5C 159.167,19.1667 160.833,19.8333 162.5,20.5C 163.058,21.7899 164.058,22.6232 165.5,23C 157.291,27.6043 148.958,31.9376 140.5,36C 139.953,36.9246 139.287,37.7579 138.5,38.5C 133.833,40.8333 129.167,43.1667 124.5,45.5C 121.725,48.1636 118.392,49.997 114.5,51C 109.641,53.9259 104.974,57.0926 100.5,60.5C 96.5,60.5 92.5,60.5 88.5,60.5C 88.1667,60.5 87.8333,60.5 87.5,60.5C 87.3893,59.8826 87.056,59.3826 86.5,59C 87.8333,58.3333 88.8333,57.3333 89.5,56C 93.3921,54.997 96.7255,53.1636 99.5,50.5C 108.468,46.6851 116.802,41.8517 124.5,36C 132.664,31.4174 140.997,27.084 149.5,23C 151.192,21.6927 152.525,20.1927 153.5,18.5 Z"/></g>
<g><path style="opacity:1" fill="#b6aab1" d="M 83.5,19.5 C 81.4855,20.9238 79.1522,21.5905 76.5,21.5C 78.5145,20.0762 80.8478,19.4095 83.5,19.5 Z"/></g>
<g><path style="opacity:1" fill="#b0aaae" d="M 76.5,21.5 C 75.3646,23.2132 73.698,23.8799 71.5,23.5C 72.9303,22.4625 74.597,21.7959 76.5,21.5 Z"/></g>
<g><path style="opacity:1" fill="#b8bcc5" d="M 162.5,20.5 C 166.263,21.6865 169.93,23.0198 173.5,24.5C 173.5,25.8333 173.5,27.1667 173.5,28.5C 170.593,28.5752 167.927,29.4086 165.5,31C 162.214,33.3176 158.88,35.6509 155.5,38C 141.748,45.3796 128.081,53.0463 114.5,61C 115.416,61.2784 116.082,61.7784 116.5,62.5C 115.167,62.5 113.833,62.5 112.5,62.5C 110.833,62.5 109.167,62.5 107.5,62.5C 105.485,61.0762 103.152,60.4095 100.5,60.5C 104.974,57.0926 109.641,53.9259 114.5,51C 118.392,49.997 121.725,48.1636 124.5,45.5C 129.167,43.1667 133.833,40.8333 138.5,38.5C 139.287,37.7579 139.953,36.9246 140.5,36C 148.958,31.9376 157.291,27.6043 165.5,23C 164.058,22.6232 163.058,21.7899 162.5,20.5 Z"/></g>
<g><path style="opacity:1" fill="#b2c0c6" d="M 173.5,24.5 C 176.069,26.0234 178.736,27.3567 181.5,28.5C 181.804,29.1499 182.137,29.8165 182.5,30.5C 180.711,31.8772 178.711,32.8772 176.5,33.5C 175.756,34.9905 175.09,36.4905 174.5,38C 159.993,45.752 145.66,53.752 131.5,62C 130.833,62.6667 130.167,63.3333 129.5,64C 132.379,64.546 135.046,65.3794 137.5,66.5C 136.833,66.5 136.167,66.5 135.5,66.5C 133.194,66.0074 130.861,65.6741 128.5,65.5C 124.687,64.2133 120.687,63.2133 116.5,62.5C 116.082,61.7784 115.416,61.2784 114.5,61C 128.081,53.0463 141.748,45.3796 155.5,38C 158.88,35.6509 162.214,33.3176 165.5,31C 167.927,29.4086 170.593,28.5752 173.5,28.5C 173.5,27.1667 173.5,25.8333 173.5,24.5 Z"/></g>
<g><path style="opacity:1" fill="#b2a9af" d="M 63.5,27.5 C 63.0269,28.9063 62.0269,29.573 60.5,29.5C 60.9731,28.0937 61.9731,27.427 63.5,27.5 Z"/></g>
<g><path style="opacity:1" fill="#abc4c6" d="M 181.5,28.5 C 185.335,30.2495 189.001,32.2495 192.5,34.5C 192.489,36.0174 191.823,37.1841 190.5,38C 181.015,42.0507 172.182,47.2174 164,53.5C 163.667,53.1667 163.333,52.8333 163,52.5C 156.156,57.8148 148.989,62.4815 141.5,66.5C 140.167,66.5 138.833,66.5 137.5,66.5C 135.046,65.3794 132.379,64.546 129.5,64C 130.167,63.3333 130.833,62.6667 131.5,62C 145.66,53.752 159.993,45.752 174.5,38C 175.09,36.4905 175.756,34.9905 176.5,33.5C 178.711,32.8772 180.711,31.8772 182.5,30.5C 182.137,29.8165 181.804,29.1499 181.5,28.5 Z"/></g>
<g><path style="opacity:1" fill="#a5c8c7" d="M 192.5,34.5 C 195.485,35.3257 198.151,36.659 200.5,38.5C 200.414,39.4959 200.748,40.3292 201.5,41C 185.911,49.7992 170.244,58.6325 154.5,67.5C 155.947,68.9348 157.614,69.9348 159.5,70.5C 158.833,70.5 158.167,70.5 157.5,70.5C 151.933,69.4918 146.599,68.1585 141.5,66.5C 148.989,62.4815 156.156,57.8148 163,52.5C 163.333,52.8333 163.667,53.1667 164,53.5C 172.182,47.2174 181.015,42.0507 190.5,38C 191.823,37.1841 192.489,36.0174 192.5,34.5 Z"/></g>
<g><path style="opacity:1" fill="#9fcbc8" d="M 200.5,38.5 C 203.709,40.2651 206.709,42.2651 209.5,44.5C 209.047,45.4584 208.381,46.2917 207.5,47C 193.242,54.709 179.242,62.709 165.5,71C 166.737,71.2321 167.737,71.7321 168.5,72.5C 165.37,72.3003 162.37,71.6336 159.5,70.5C 157.614,69.9348 155.947,68.9348 154.5,67.5C 170.244,58.6325 185.911,49.7992 201.5,41C 200.748,40.3292 200.414,39.4959 200.5,38.5 Z"/></g>
<g><path style="opacity:1" fill="#b8aab2" d="M 39.5,44.5 C 37.7607,47.2427 35.4274,49.2427 32.5,50.5C 34.2393,47.7573 36.5726,45.7573 39.5,44.5 Z"/></g>
<g><path style="opacity:1" fill="#98cfc9" d="M 209.5,44.5 C 211.969,45.5686 214.302,46.9019 216.5,48.5C 217.413,50.0861 217.413,51.5861 216.5,53C 204.004,59.7469 191.671,66.7469 179.5,74C 181.431,74.9022 183.097,76.0688 184.5,77.5C 180.89,76.2967 177.223,75.2967 173.5,74.5C 172.22,73.0687 170.553,72.4021 168.5,72.5C 167.737,71.7321 166.737,71.2321 165.5,71C 179.242,62.709 193.242,54.709 207.5,47C 208.381,46.2917 209.047,45.4584 209.5,44.5 Z"/></g>
<g><path style="opacity:1" fill="#92d3c9" d="M 216.5,48.5 C 219.582,50.3719 222.249,52.7052 224.5,55.5C 224.5,56.5 224.5,57.5 224.5,58.5C 220.195,59.0989 216.529,60.9323 213.5,64C 205.744,67.809 198.078,71.809 190.5,76C 189.402,76.7697 189.402,77.603 190.5,78.5C 190.167,78.5 189.833,78.5 189.5,78.5C 187.883,77.962 186.216,77.6287 184.5,77.5C 183.097,76.0688 181.431,74.9022 179.5,74C 191.671,66.7469 204.004,59.7469 216.5,53C 217.413,51.5861 217.413,50.0861 216.5,48.5 Z"/></g>
<g><path style="opacity:1" fill="#b0abae" d="M 32.5,50.5 C 32.573,52.0269 31.9063,53.0269 30.5,53.5C 30.427,51.9731 31.0937,50.9731 32.5,50.5 Z"/></g>
<g><path style="opacity:1" fill="#8cd7ca" d="M 224.5,55.5 C 226.5,56.8333 228.167,58.5 229.5,60.5C 230.171,61.8471 230.171,63.0138 229.5,64C 219.462,68.8766 209.795,74.3766 200.5,80.5C 201.243,81.1818 201.909,81.8485 202.5,82.5C 198.393,81.3533 194.393,80.02 190.5,78.5C 189.402,77.603 189.402,76.7697 190.5,76C 198.078,71.809 205.744,67.809 213.5,64C 216.529,60.9323 220.195,59.0989 224.5,58.5C 224.5,57.5 224.5,56.5 224.5,55.5 Z"/></g>
<g><path style="opacity:1" fill="#b3abb1" d="M 28.5,55.5 C 28.573,57.0269 27.9063,58.0269 26.5,58.5C 26.427,56.9731 27.0937,55.9731 28.5,55.5 Z"/></g>
<g><path style="opacity:1" fill="#c3becb" d="M 87.5,60.5 C 87.8333,60.5 88.1667,60.5 88.5,60.5C 92.4937,61.3733 92.4937,62.54 88.5,64C 83.5161,63.4558 79.3495,65.2891 76,69.5C 74.7318,69.3842 73.3985,69.0509 72,68.5C 68.4186,70.3735 64.9186,72.3735 61.5,74.5C 56.8502,73.6527 53.1836,75.3193 50.5,79.5C 49.914,79.2907 49.414,78.9574 49,78.5C 48.1841,79.8228 47.0174,80.4894 45.5,80.5C 46.1098,79.609 46.4431,78.609 46.5,77.5C 52.2546,71.1117 59.2546,66.4451 67.5,63.5C 73.9636,61.2367 80.6303,60.2367 87.5,60.5 Z"/></g>
<g><path style="opacity:1" fill="#bfc0cc" d="M 88.5,60.5 C 92.5,60.5 96.5,60.5 100.5,60.5C 103.152,60.4095 105.485,61.0762 107.5,62.5C 104.482,62.3354 101.482,62.502 98.5,63C 97.7894,64.2547 96.956,65.4214 96,66.5C 94.8902,62.7211 93.3902,62.5544 91.5,66C 90.2161,66.6838 89.0495,66.5171 88,65.5C 83.9984,69.7545 79.4984,73.4211 74.5,76.5C 74.2514,75.4179 74.0848,74.0846 74,72.5C 71.8333,73.3333 70.3333,74.8333 69.5,77C 66.9925,77.0929 64.8259,77.9262 63,79.5C 62.6924,78.6919 62.1924,78.0253 61.5,77.5C 57.3401,80.1645 53.6734,83.3312 50.5,87C 45.7302,85.5619 43.0635,87.3952 42.5,92.5C 41.7281,93.6935 40.7281,94.6935 39.5,95.5C 39.5,94.1667 39.5,92.8333 39.5,91.5C 40.4972,91.5299 41.1639,91.0299 41.5,90C 42.4347,86.6346 43.7681,83.468 45.5,80.5C 47.0174,80.4894 48.1841,79.8228 49,78.5C 49.414,78.9574 49.914,79.2907 50.5,79.5C 53.1836,75.3193 56.8502,73.6527 61.5,74.5C 64.9186,72.3735 68.4186,70.3735 72,68.5C 73.3985,69.0509 74.7318,69.3842 76,69.5C 79.3495,65.2891 83.5161,63.4558 88.5,64C 92.4937,62.54 92.4937,61.3733 88.5,60.5 Z"/></g>
<g><path style="opacity:1" fill="#bdc2cd" d="M 107.5,62.5 C 109.167,62.5 110.833,62.5 112.5,62.5C 113.952,63.3019 115.618,63.8019 117.5,64C 109.94,67.0436 102.274,69.877 94.5,72.5C 93.914,72.2907 93.414,71.9574 93,71.5C 88.7332,73.205 84.5666,75.205 80.5,77.5C 79.914,77.2907 79.414,76.9574 79,76.5C 75.7814,78.6451 72.4481,80.6451 69,82.5C 68.6667,82.1667 68.3333,81.8333 68,81.5C 63.0824,83.2553 58.4157,85.5887 54,88.5C 53.6667,87.8333 53.3333,87.1667 53,86.5C 49.1436,87.852 45.6436,89.852 42.5,92.5C 43.0635,87.3952 45.7302,85.5619 50.5,87C 53.6734,83.3312 57.3401,80.1645 61.5,77.5C 62.1924,78.0253 62.6924,78.6919 63,79.5C 64.8259,77.9262 66.9925,77.0929 69.5,77C 70.3333,74.8333 71.8333,73.3333 74,72.5C 74.0848,74.0846 74.2514,75.4179 74.5,76.5C 79.4984,73.4211 83.9984,69.7545 88,65.5C 89.0495,66.5171 90.2161,66.6838 91.5,66C 93.3902,62.5544 94.8902,62.7211 96,66.5C 96.956,65.4214 97.7894,64.2547 98.5,63C 101.482,62.502 104.482,62.3354 107.5,62.5 Z"/></g>
<g><path style="opacity:1" fill="#b6c8d0" d="M 128.5,65.5 C 130.861,65.6741 133.194,66.0074 135.5,66.5C 134.724,68.974 133.224,69.6407 131,68.5C 126.474,71.5397 121.641,73.873 116.5,75.5C 115.914,75.2907 115.414,74.9574 115,74.5C 111.674,78.1158 107.508,80.1158 102.5,80.5C 101.914,80.2907 101.414,79.9574 101,79.5C 98.7185,82.9565 95.5518,84.9565 91.5,85.5C 89.8084,84.7992 88.1417,85.1325 86.5,86.5C 89.4686,82.2205 93.4686,78.8872 98.5,76.5C 100.806,76.6457 103.139,76.979 105.5,77.5C 109.142,74.3394 112.809,71.1728 116.5,68C 118.906,67.6943 121.073,66.861 123,65.5C 124.69,66.1495 126.523,66.1495 128.5,65.5 Z"/></g>
<g><path style="opacity:1" fill="#a0adaa" d="M 22.5,64.5 C 22.573,66.0269 21.9063,67.0269 20.5,67.5C 20.427,65.9731 21.0937,64.9731 22.5,64.5 Z"/></g>
<g><path style="opacity:1" fill="#b2ccd1" d="M 135.5,66.5 C 136.167,66.5 136.833,66.5 137.5,66.5C 138.833,66.5 140.167,66.5 141.5,66.5C 146.599,68.1585 151.933,69.4918 157.5,70.5C 155.78,71.8641 153.78,72.8641 151.5,73.5C 150.614,74.325 150.281,75.325 150.5,76.5C 148.549,76.7733 147.049,76.1066 146,74.5C 143.306,76.0236 140.64,77.6902 138,79.5C 136.969,77.579 135.469,77.579 133.5,79.5C 133.709,80.086 134.043,80.586 134.5,81C 129.182,83.8692 123.516,85.8692 117.5,87C 116.833,87.6667 116.167,88.3333 115.5,89C 118.695,89.1805 121.695,89.6805 124.5,90.5C 120.102,90.2941 115.768,90.6274 111.5,91.5C 108.148,91.127 104.814,90.7936 101.5,90.5C 98.8806,90.2317 96.3806,90.565 94,91.5C 93.6667,95.1667 93.3333,98.8333 93,102.5C 90.5326,98.3996 87.6993,94.5662 84.5,91C 81.8333,90.3333 79.1667,90.3333 76.5,91C 75.5286,96.0717 75.1953,101.238 75.5,106.5C 74.0087,109.091 71.6753,110.091 68.5,109.5C 68.5,105.5 68.5,101.5 68.5,97.5C 69.791,97.7373 70.791,97.404 71.5,96.5C 71.5,94.8333 71.5,93.1667 71.5,91.5C 71.5,91.1667 71.5,90.8333 71.5,90.5C 72.6883,89.6364 73.8549,88.6364 75,87.5C 77.9417,87.2413 80.6083,87.5746 83,88.5C 84.1127,87.695 85.2794,87.0283 86.5,86.5C 88.1417,85.1325 89.8084,84.7992 91.5,85.5C 95.5518,84.9565 98.7185,82.9565 101,79.5C 101.414,79.9574 101.914,80.2907 102.5,80.5C 107.508,80.1158 111.674,78.1158 115,74.5C 115.414,74.9574 115.914,75.2907 116.5,75.5C 121.641,73.873 126.474,71.5397 131,68.5C 133.224,69.6407 134.724,68.974 135.5,66.5 Z"/></g>
<g><path style="opacity:1" fill="#86daca" d="M 229.5,60.5 C 235.62,64.8773 237.62,70.544 235.5,77.5C 235.5,75.1667 235.5,72.8333 235.5,70.5C 226.781,74.141 218.448,78.641 210.5,84C 211.252,84.6708 211.586,85.5041 211.5,86.5C 208.594,85.2134 205.594,84.2134 202.5,83.5C 202.5,83.1667 202.5,82.8333 202.5,82.5C 201.909,81.8485 201.243,81.1818 200.5,80.5C 209.795,74.3766 219.462,68.8766 229.5,64C 230.171,63.0138 230.171,61.8471 229.5,60.5 Z"/></g>
<g><path style="opacity:1" fill="#adadb0" d="M 20.5,67.5 C 20.8799,69.698 20.2132,71.3646 18.5,72.5C 18.7959,70.597 19.4625,68.9303 20.5,67.5 Z"/></g>
<g><path style="opacity:1" fill="#80decb" d="M 235.5,77.5 C 235.607,79.9032 234.607,81.7365 232.5,83C 228.593,86.2084 224.26,88.3751 219.5,89.5C 216.677,88.7834 214.01,87.7834 211.5,86.5C 211.586,85.5041 211.252,84.6708 210.5,84C 218.448,78.641 226.781,74.141 235.5,70.5C 235.5,72.8333 235.5,75.1667 235.5,77.5 Z"/></g>
<g><path style="opacity:1" fill="#acd1d3" d="M 157.5,70.5 C 158.167,70.5 158.833,70.5 159.5,70.5C 162.37,71.6336 165.37,72.3003 168.5,72.5C 170.553,72.4021 172.22,73.0687 173.5,74.5C 174.091,75.1515 174.757,75.8182 175.5,76.5C 167.078,79.7463 158.745,83.2463 150.5,87C 149.833,87.6667 149.167,88.3333 148.5,89C 151.036,89.1862 153.369,89.6862 155.5,90.5C 150.6,90.0328 145.933,90.6994 141.5,92.5C 141.53,91.5028 141.03,90.8361 140,90.5C 138.584,91.5733 137.25,91.5733 136,90.5C 134.249,91.2225 132.749,92.2225 131.5,93.5C 129.566,91.703 127.233,90.703 124.5,90.5C 121.695,89.6805 118.695,89.1805 115.5,89C 116.167,88.3333 116.833,87.6667 117.5,87C 123.516,85.8692 129.182,83.8692 134.5,81C 134.043,80.586 133.709,80.086 133.5,79.5C 135.469,77.579 136.969,77.579 138,79.5C 140.64,77.6902 143.306,76.0236 146,74.5C 147.049,76.1066 148.549,76.7733 150.5,76.5C 150.281,75.325 150.614,74.325 151.5,73.5C 153.78,72.8641 155.78,71.8641 157.5,70.5 Z"/></g>
<g><path style="opacity:1" fill="#b9c5ce" d="M 112.5,62.5 C 113.833,62.5 115.167,62.5 116.5,62.5C 120.687,63.2133 124.687,64.2133 128.5,65.5C 126.523,66.1495 124.69,66.1495 123,65.5C 121.073,66.861 118.906,67.6943 116.5,68C 112.809,71.1728 109.142,74.3394 105.5,77.5C 103.139,76.979 100.806,76.6457 98.5,76.5C 93.4686,78.8872 89.4686,82.2205 86.5,86.5C 85.2794,87.0283 84.1127,87.695 83,88.5C 80.6083,87.5746 77.9417,87.2413 75,87.5C 73.8549,88.6364 72.6883,89.6364 71.5,90.5C 65.642,90.1778 59.9753,90.5111 54.5,91.5C 53.1888,93.5598 53.1888,95.7265 54.5,98C 51.6697,98.869 49.003,100.036 46.5,101.5C 45.914,101.291 45.414,100.957 45,100.5C 42.6912,102.199 40.8578,104.199 39.5,106.5C 39.5,102.833 39.5,99.1667 39.5,95.5C 40.7281,94.6935 41.7281,93.6935 42.5,92.5C 45.6436,89.852 49.1436,87.852 53,86.5C 53.3333,87.1667 53.6667,87.8333 54,88.5C 58.4157,85.5887 63.0824,83.2553 68,81.5C 68.3333,81.8333 68.6667,82.1667 69,82.5C 72.4481,80.6451 75.7814,78.6451 79,76.5C 79.414,76.9574 79.914,77.2907 80.5,77.5C 84.5666,75.205 88.7332,73.205 93,71.5C 93.414,71.9574 93.914,72.2907 94.5,72.5C 102.274,69.877 109.94,67.0436 117.5,64C 115.618,63.8019 113.952,63.3019 112.5,62.5 Z"/></g>
<g><path style="opacity:1" fill="#a7d7d6" d="M 173.5,74.5 C 177.223,75.2967 180.89,76.2967 184.5,77.5C 186.216,77.6287 187.883,77.962 189.5,78.5C 190.881,80.2741 190.548,81.7741 188.5,83C 184.219,83.9298 179.886,85.2631 175.5,87C 174.833,87.6667 174.167,88.3333 173.5,89C 177.025,89.1787 180.359,89.6787 183.5,90.5C 179.167,90.5 174.833,90.5 170.5,90.5C 170.5,98.8333 170.5,107.167 170.5,115.5C 170.167,115.5 169.833,115.5 169.5,115.5C 169.666,110.156 169.499,104.823 169,99.5C 168.155,101.611 167.322,103.611 166.5,105.5C 167.461,97.1252 163.794,92.1252 155.5,90.5C 153.369,89.6862 151.036,89.1862 148.5,89C 149.167,88.3333 149.833,87.6667 150.5,87C 158.745,83.2463 167.078,79.7463 175.5,76.5C 174.757,75.8182 174.091,75.1515 173.5,74.5 Z"/></g>
<g><path style="opacity:1" fill="#a1d9d5" d="M 189.5,78.5 C 189.833,78.5 190.167,78.5 190.5,78.5C 194.393,80.02 198.393,81.3533 202.5,82.5C 202.5,82.8333 202.5,83.1667 202.5,83.5C 202.586,84.4959 202.252,85.3292 201.5,86C 199.314,87.309 197.147,87.4757 195,86.5C 192.821,87.1161 190.988,88.2828 189.5,90C 191.618,91.0491 193.284,92.5491 194.5,94.5C 191.008,92.7795 187.341,91.4462 183.5,90.5C 180.359,89.6787 177.025,89.1787 173.5,89C 174.167,88.3333 174.833,87.6667 175.5,87C 179.886,85.2631 184.219,83.9298 188.5,83C 190.548,81.7741 190.881,80.2741 189.5,78.5 Z"/></g>
<g><path style="opacity:1" fill="#9cdcd6" d="M 202.5,83.5 C 205.594,84.2134 208.594,85.2134 211.5,86.5C 214.01,87.7834 216.677,88.7834 219.5,89.5C 220.167,89.5 220.5,89.8333 220.5,90.5C 219.833,90.5 219.167,90.5 218.5,90.5C 215.482,90.3354 212.482,90.502 209.5,91C 208.177,91.8159 207.511,92.9826 207.5,94.5C 205.447,94.4021 203.78,95.0687 202.5,96.5C 200.566,97.1103 198.899,98.1103 197.5,99.5C 196.692,97.7798 195.692,96.1131 194.5,94.5C 193.284,92.5491 191.618,91.0491 189.5,90C 190.988,88.2828 192.821,87.1161 195,86.5C 197.147,87.4757 199.314,87.309 201.5,86C 202.252,85.3292 202.586,84.4959 202.5,83.5 Z"/></g>
<g><path style="opacity:1" fill="#85b1a0" d="M 15.5,81.5 C 15.0648,89.7426 15.7315,97.7426 17.5,105.5C 17.5,107.167 17.5,108.833 17.5,110.5C 13.1822,101.052 12.5155,91.3854 15.5,81.5 Z"/></g>
<g><path style="opacity:1" fill="#e1e6ea" d="M 71.5,90.5 C 71.5,90.8333 71.5,91.1667 71.5,91.5C 66.1667,91.5 60.8333,91.5 55.5,91.5C 55.5,93.1667 55.5,94.8333 55.5,96.5C 54.5489,95.0813 54.2155,93.4147 54.5,91.5C 59.9753,90.5111 65.642,90.1778 71.5,90.5 Z"/></g>
<g><path style="opacity:1" fill="#bfb8c4" d="M 17.5,76.5 C 16.8005,80.7978 16.4672,85.1311 16.5,89.5C 16.3367,91.8568 16.5034,94.1902 17,96.5C 19.3838,93.4303 22.5505,91.597 26.5,91C 33.056,86.267 39.7226,81.767 46.5,77.5C 46.4431,78.609 46.1098,79.609 45.5,80.5C 43.7681,83.468 42.4347,86.6346 41.5,90C 41.1639,91.0299 40.4972,91.5299 39.5,91.5C 36.7131,90.5233 33.7131,90.19 30.5,90.5C 30.5,93.8333 30.5,97.1667 30.5,100.5C 29.7515,101.531 29.0848,102.698 28.5,104C 25.3081,104.197 22.3081,105.03 19.5,106.5C 18.8165,106.137 18.1499,105.804 17.5,105.5C 15.7315,97.7426 15.0648,89.7426 15.5,81.5C 15.7959,79.597 16.4625,77.9303 17.5,76.5 Z"/></g>
<g><path style="opacity:1" fill="#fcfdfd" d="M 39.5,109.5 C 43.97,110.486 48.6367,110.819 53.5,110.5C 53.5,112.167 53.5,113.833 53.5,115.5C 46.1667,115.5 38.8333,115.5 31.5,115.5C 31.5,107.5 31.5,99.5 31.5,91.5C 33.8333,91.5 36.1667,91.5 38.5,91.5C 38.1771,97.69 38.5104,103.69 39.5,109.5 Z"/></g>
<g><path style="opacity:1" fill="#fbfcfd" d="M 71.5,91.5 C 71.5,93.1667 71.5,94.8333 71.5,96.5C 70.1667,96.5 68.8333,96.5 67.5,96.5C 67.5,101.167 67.5,105.833 67.5,110.5C 69.1667,110.5 70.8333,110.5 72.5,110.5C 72.5,112.167 72.5,113.833 72.5,115.5C 66.8333,115.5 61.1667,115.5 55.5,115.5C 55.5,113.833 55.5,112.167 55.5,110.5C 56.8333,110.5 58.1667,110.5 59.5,110.5C 59.5,105.833 59.5,101.167 59.5,96.5C 58.1667,96.5 56.8333,96.5 55.5,96.5C 55.5,94.8333 55.5,93.1667 55.5,91.5C 60.8333,91.5 66.1667,91.5 71.5,91.5 Z"/></g>
<g><path style="opacity:1" fill="#f8fbfb" d="M 101.5,90.5 C 102.469,98.7483 102.802,107.082 102.5,115.5C 99.5,115.5 96.5,115.5 93.5,115.5C 92.4884,114.128 91.4884,112.795 90.5,111.5C 89.2516,108.004 87.2516,105.004 84.5,102.5C 83.5078,106.783 83.1744,111.116 83.5,115.5C 80.8333,115.5 78.1667,115.5 75.5,115.5C 75.5,112.5 75.5,109.5 75.5,106.5C 75.1953,101.238 75.5286,96.0717 76.5,91C 79.1667,90.3333 81.8333,90.3333 84.5,91C 87.6993,94.5662 90.5326,98.3996 93,102.5C 93.3333,98.8333 93.6667,95.1667 94,91.5C 96.3806,90.565 98.8806,90.2317 101.5,90.5 Z"/></g>
<g><path style="opacity:1" fill="#f8fbfb" d="M 124.5,90.5 C 127.233,90.703 129.566,91.703 131.5,93.5C 133.081,95.1417 133.747,97.1417 133.5,99.5C 129.698,100.12 126.365,99.2863 123.5,97C 117.882,95.0115 114.882,96.8448 114.5,102.5C 114.376,108.883 117.376,111.383 123.5,110C 124.973,109.29 125.64,108.124 125.5,106.5C 124.167,106.5 122.833,106.5 121.5,106.5C 121.5,104.833 121.5,103.167 121.5,101.5C 125.5,101.5 129.5,101.5 133.5,101.5C 133.5,104.167 133.5,106.833 133.5,109.5C 128.413,115.917 121.747,118.084 113.5,116C 112.058,115.623 111.058,114.79 110.5,113.5C 104.864,105.825 105.197,98.4921 111.5,91.5C 115.768,90.6274 120.102,90.2941 124.5,90.5 Z"/></g>
<g><path style="opacity:1" fill="#f8fcfb" d="M 155.5,90.5 C 163.794,92.1252 167.461,97.1252 166.5,105.5C 163.868,113.246 158.368,116.913 150,116.5C 147.967,116.494 146.134,116.161 144.5,115.5C 141.059,113.388 138.725,110.388 137.5,106.5C 136.491,101.001 137.825,96.3347 141.5,92.5C 145.933,90.6994 150.6,90.0328 155.5,90.5 Z"/></g>
<g><path style="opacity:1" fill="#f9fbfb" d="M 183.5,90.5 C 187.341,91.4462 191.008,92.7795 194.5,94.5C 195.692,96.1131 196.692,97.7798 197.5,99.5C 197.813,103.413 197.147,107.079 195.5,110.5C 191.067,114.085 186.067,116.085 180.5,116.5C 180.167,116.5 179.833,116.5 179.5,116.5C 176.713,115.523 173.713,115.19 170.5,115.5C 170.5,107.167 170.5,98.8333 170.5,90.5C 174.833,90.5 179.167,90.5 183.5,90.5 Z"/></g>
<g><path style="opacity:1" fill="#fdfafb" d="M 218.5,90.5 C 219.167,91.8333 219.833,93.1667 220.5,94.5C 220.755,96.9674 221.755,98.9674 223.5,100.5C 225.186,103.872 226.853,107.205 228.5,110.5C 228.5,110.833 228.5,111.167 228.5,111.5C 228.5,112.833 228.5,114.167 228.5,115.5C 225.833,115.5 223.167,115.5 220.5,115.5C 220.737,114.209 220.404,113.209 219.5,112.5C 215.702,111.517 211.702,111.183 207.5,111.5C 207.67,112.822 207.337,113.989 206.5,115C 204.19,115.497 201.857,115.663 199.5,115.5C 199.5,114.5 199.5,113.5 199.5,112.5C 199.935,109.843 200.935,107.509 202.5,105.5C 204.245,103.967 205.245,101.967 205.5,99.5C 206.537,98.0697 207.204,96.403 207.5,94.5C 207.511,92.9826 208.177,91.8159 209.5,91C 212.482,90.502 215.482,90.3354 218.5,90.5 Z"/></g>
<g><path style="opacity:1" fill="#acacae" d="M 221.5,90.5 C 223.027,90.427 224.027,91.0937 224.5,92.5C 222.973,92.573 221.973,91.9063 221.5,90.5 Z"/></g>
<g><path style="opacity:1" fill="#eda8ca" d="M 218.5,90.5 C 219.167,90.5 219.833,90.5 220.5,90.5C 220.833,90.5 221.167,90.5 221.5,90.5C 221.973,91.9063 222.973,92.573 224.5,92.5C 227.588,94.5711 230.921,96.2378 234.5,97.5C 234.973,98.9063 235.973,99.573 237.5,99.5C 237.833,100.167 238.167,100.833 238.5,101.5C 236.83,101.249 235.33,100.582 234,99.5C 232.449,103.328 230.616,106.995 228.5,110.5C 226.853,107.205 225.186,103.872 223.5,100.5C 223.245,98.0326 222.245,96.0326 220.5,94.5C 219.833,93.1667 219.167,91.8333 218.5,90.5 Z"/></g>
<g><path style="opacity:1" fill="#dedee3" d="M 39.5,91.5 C 39.5,92.8333 39.5,94.1667 39.5,95.5C 39.5,99.1667 39.5,102.833 39.5,106.5C 39.5,107.5 39.5,108.5 39.5,109.5C 38.5104,103.69 38.1771,97.69 38.5,91.5C 36.1667,91.5 33.8333,91.5 31.5,91.5C 31.5,99.5 31.5,107.5 31.5,115.5C 30.5128,110.695 30.1795,105.695 30.5,100.5C 30.5,97.1667 30.5,93.8333 30.5,90.5C 33.7131,90.19 36.7131,90.5233 39.5,91.5 Z"/></g>
<g><path style="opacity:1" fill="#dccddb" d="M 207.5,94.5 C 207.204,96.403 206.537,98.0697 205.5,99.5C 205.5,98.5 205.5,97.5 205.5,96.5C 204.5,96.5 203.5,96.5 202.5,96.5C 203.78,95.0687 205.447,94.4021 207.5,94.5 Z"/></g>
<g><path style="opacity:1" fill="#b3dad9" d="M 141.5,92.5 C 137.825,96.3347 136.491,101.001 137.5,106.5C 136.681,103.695 136.181,100.695 136,97.5C 134.9,101.503 134.067,105.503 133.5,109.5C 133.5,106.833 133.5,104.167 133.5,101.5C 129.5,101.5 125.5,101.5 121.5,101.5C 121.5,103.167 121.5,104.833 121.5,106.5C 122.833,106.5 124.167,106.5 125.5,106.5C 125.64,108.124 124.973,109.29 123.5,110C 117.376,111.383 114.376,108.883 114.5,102.5C 114.882,96.8448 117.882,95.0115 123.5,97C 126.365,99.2863 129.698,100.12 133.5,99.5C 133.747,97.1417 133.081,95.1417 131.5,93.5C 132.749,92.2225 134.249,91.2225 136,90.5C 137.25,91.5733 138.584,91.5733 140,90.5C 141.03,90.8361 141.53,91.5028 141.5,92.5 Z"/></g>
<g><path style="opacity:1" fill="#9fe0d8" d="M 178.5,96.5 C 189.256,96.7995 191.256,101.133 184.5,109.5C 182.604,110.466 180.604,110.799 178.5,110.5C 178.5,105.833 178.5,101.167 178.5,96.5 Z"/></g>
<g><path style="opacity:1" fill="#e8aaca" d="M 202.5,96.5 C 203.5,96.5 204.5,96.5 205.5,96.5C 205.5,97.5 205.5,98.5 205.5,99.5C 203.755,101.033 202.755,103.033 202.5,105.5C 200.935,107.509 199.935,109.843 199.5,112.5C 198.566,113.568 198.232,114.901 198.5,116.5C 201.167,116.5 203.833,116.5 206.5,116.5C 205.598,118.341 204.264,119.674 202.5,120.5C 201.778,120.082 201.278,119.416 201,118.5C 199.758,119.872 198.258,120.872 196.5,121.5C 195.961,124.166 194.628,126.333 192.5,128C 192.957,128.414 193.291,128.914 193.5,129.5C 192.24,130.382 191.074,131.382 190,132.5C 186.443,139.795 182.276,146.629 177.5,153C 177.957,153.414 178.291,153.914 178.5,154.5C 175.886,156.891 173.886,159.725 172.5,163C 172.957,163.414 173.291,163.914 173.5,164.5C 172.372,165.262 171.205,165.929 170,166.5C 166.052,174.174 161.885,181.674 157.5,189C 157.957,189.414 158.291,189.914 158.5,190.5C 155.658,191.004 154.325,192.671 154.5,195.5C 156.833,195.5 159.167,195.5 161.5,195.5C 159.052,196.473 156.385,196.806 153.5,196.5C 151.167,196.5 148.833,196.5 146.5,196.5C 163.305,168.238 179.638,139.571 195.5,110.5C 197.147,107.079 197.813,103.413 197.5,99.5C 198.899,98.1103 200.566,97.1103 202.5,96.5 Z"/></g>
<g><path style="opacity:1" fill="#b4c9ce" d="M 54.5,91.5 C 54.2155,93.4147 54.5489,95.0813 55.5,96.5C 56.209,97.404 57.209,97.7373 58.5,97.5C 58.5,101.5 58.5,105.5 58.5,109.5C 52.1667,109.5 45.8333,109.5 39.5,109.5C 39.5,108.5 39.5,107.5 39.5,106.5C 40.8578,104.199 42.6912,102.199 45,100.5C 45.414,100.957 45.914,101.291 46.5,101.5C 49.003,100.036 51.6697,98.869 54.5,98C 53.1888,95.7265 53.1888,93.5598 54.5,91.5 Z"/></g>
<g><path style="opacity:1" fill="#cbe8e7" d="M 153.5,96.5 C 147.375,96.9809 145.042,100.314 146.5,106.5C 144.761,102.607 145.427,99.1073 148.5,96C 150.387,95.2204 152.054,95.3871 153.5,96.5 Z"/></g>
<g><path style="opacity:1" fill="#a3dbd6" d="M 153.5,96.5 C 157.314,99.1521 158.481,102.819 157,107.5C 154.79,110.29 151.956,111.123 148.5,110C 147.177,109.184 146.511,108.017 146.5,106.5C 145.042,100.314 147.375,96.9809 153.5,96.5 Z"/></g>
<g><path style="opacity:1" fill="#99aca5" d="M 234.5,97.5 C 236.027,97.427 237.027,98.0937 237.5,99.5C 235.973,99.573 234.973,98.9063 234.5,97.5 Z"/></g>
<g><path style="opacity:1" fill="#f5cce0" d="M 220.5,94.5 C 222.245,96.0326 223.245,98.0326 223.5,100.5C 221.755,98.9674 220.755,96.9674 220.5,94.5 Z"/></g>
<g><path style="opacity:1" fill="#f6a3cb" d="M 238.5,101.5 C 239.167,101.5 239.833,101.5 240.5,101.5C 241.911,103.914 243.911,105.581 246.5,106.5C 249.675,110.19 252.342,114.19 254.5,118.5C 255.908,122.686 256.575,127.019 256.5,131.5C 255.699,133.042 255.366,134.708 255.5,136.5C 253.755,138.033 252.755,140.033 252.5,142.5C 251.662,142.842 251.328,143.508 251.5,144.5C 250.094,144.973 249.427,145.973 249.5,147.5C 247.413,148.585 246.08,150.251 245.5,152.5C 242.236,154.094 239.569,156.427 237.5,159.5C 235.251,160.08 233.585,161.413 232.5,163.5C 230.973,163.427 229.973,164.094 229.5,165.5C 227.973,165.427 226.973,166.094 226.5,167.5C 224.973,167.427 223.973,168.094 223.5,169.5C 221.973,169.427 220.973,170.094 220.5,171.5C 219.508,171.328 218.842,171.662 218.5,172.5C 216.973,172.427 215.973,173.094 215.5,174.5C 214.508,174.328 213.842,174.662 213.5,175.5C 211.847,175.66 210.514,176.326 209.5,177.5C 207.973,177.427 206.973,178.094 206.5,179.5C 204.847,179.66 203.514,180.326 202.5,181.5C 200.847,181.66 199.514,182.326 198.5,183.5C 197.508,183.328 196.842,183.662 196.5,184.5C 194.973,184.427 193.973,185.094 193.5,186.5C 192.833,186.5 192.167,186.5 191.5,186.5C 189.847,186.66 188.514,187.326 187.5,188.5C 186.833,188.5 186.167,188.5 185.5,188.5C 183.972,188.483 183.472,187.816 184,186.5C 197.59,163.242 211.09,139.909 224.5,116.5C 226.167,116.5 227.833,116.5 229.5,116.5C 229.784,114.585 229.451,112.919 228.5,111.5C 228.5,111.167 228.5,110.833 228.5,110.5C 230.616,106.995 232.449,103.328 234,99.5C 235.33,100.582 236.83,101.249 238.5,101.5 Z"/></g>
<g><path style="opacity:1" fill="#97ada4" d="M 237.5,99.5 C 239.027,99.427 240.027,100.094 240.5,101.5C 239.833,101.5 239.167,101.5 238.5,101.5C 238.167,100.833 237.833,100.167 237.5,99.5 Z"/></g>
<g><path style="opacity:1" fill="#96aca3" d="M 240.5,101.5 C 243.089,102.419 245.089,104.086 246.5,106.5C 243.911,105.581 241.911,103.914 240.5,101.5 Z"/></g>
<g><path style="opacity:1" fill="#f4d4e4" d="M 205.5,99.5 C 205.245,101.967 204.245,103.967 202.5,105.5C 202.755,103.033 203.755,101.033 205.5,99.5 Z"/></g>
<g><path style="opacity:1" fill="#f4c8de" d="M 213.5,99.5 C 215.969,100.607 216.969,102.607 216.5,105.5C 214.833,105.5 213.167,105.5 211.5,105.5C 211.253,103.142 211.919,101.142 213.5,99.5 Z"/></g>
<g><path style="opacity:1" fill="#bbd9da" d="M 90.5,111.5 C 88.9582,110.699 87.2915,110.366 85.5,110.5C 85.9227,112.781 85.256,114.448 83.5,115.5C 83.1744,111.116 83.5078,106.783 84.5,102.5C 87.2516,105.004 89.2516,108.004 90.5,111.5 Z"/></g>
<g><path style="opacity:1" fill="#b1d7d7" d="M 101.5,90.5 C 104.814,90.7936 108.148,91.127 111.5,91.5C 105.197,98.4921 104.864,105.825 110.5,113.5C 107.641,111.98 105.307,112.647 103.5,115.5C 101.955,116.452 100.288,116.785 98.5,116.5C 96.5853,116.784 94.9187,116.451 93.5,115.5C 96.5,115.5 99.5,115.5 102.5,115.5C 102.802,107.082 102.469,98.7483 101.5,90.5 Z"/></g>
<g><path style="opacity:1" fill="#bdd9da" d="M 71.5,96.5 C 70.791,97.404 69.791,97.7373 68.5,97.5C 68.5,101.5 68.5,105.5 68.5,109.5C 71.6753,110.091 74.0087,109.091 75.5,106.5C 75.5,109.5 75.5,112.5 75.5,115.5C 78.1667,115.5 80.8333,115.5 83.5,115.5C 77.8688,115.917 72.2021,116.25 66.5,116.5C 62.6286,116.815 58.9619,116.482 55.5,115.5C 61.1667,115.5 66.8333,115.5 72.5,115.5C 72.5,113.833 72.5,112.167 72.5,110.5C 70.8333,110.5 69.1667,110.5 67.5,110.5C 67.5,105.833 67.5,101.167 67.5,96.5C 68.8333,96.5 70.1667,96.5 71.5,96.5 Z"/></g>
<g><path style="opacity:1" fill="#b3bfc5" d="M 30.5,100.5 C 30.1795,105.695 30.5128,110.695 31.5,115.5C 32.9516,116.302 34.6183,116.802 36.5,117C 32.8721,120.48 28.5388,122.313 23.5,122.5C 21.4673,118.435 19.4673,114.435 17.5,110.5C 17.5,108.833 17.5,107.167 17.5,105.5C 18.1499,105.804 18.8165,106.137 19.5,106.5C 22.3081,105.03 25.3081,104.197 28.5,104C 29.0848,102.698 29.7515,101.531 30.5,100.5 Z"/></g>
<g><path style="opacity:1" fill="#a4d1cf" d="M 90.5,111.5 C 91.4884,112.795 92.4884,114.128 93.5,115.5C 94.9187,116.451 96.5853,116.784 98.5,116.5C 97.9423,117.79 96.9423,118.623 95.5,119C 88.2509,119.542 82.0842,122.375 77,127.5C 76.6667,126.5 76.3333,125.5 76,124.5C 74.2161,127.003 72.5494,127.003 71,124.5C 70.6258,125.416 70.1258,126.25 69.5,127C 67.0506,127.725 64.7173,128.725 62.5,130C 59.6126,132.711 56.7792,135.544 54,138.5C 53.6924,137.692 53.1924,137.025 52.5,136.5C 52.6617,143.12 51.8284,143.12 50,136.5C 47.6271,139.407 44.6271,141.407 41,142.5C 39.5936,141.586 38.0936,140.92 36.5,140.5C 35.0256,139.564 34.0256,138.23 33.5,136.5C 37.6459,135.209 41.4792,133.209 45,130.5C 45.414,130.957 45.914,131.291 46.5,131.5C 46.7824,129.013 46.7824,126.347 46.5,123.5C 53.6638,122.235 60.3304,119.902 66.5,116.5C 72.2021,116.25 77.8688,115.917 83.5,115.5C 85.256,114.448 85.9227,112.781 85.5,110.5C 87.2915,110.366 88.9582,110.699 90.5,111.5 Z"/></g>
<g><path style="opacity:1" fill="#d6e3e6" d="M 55.5,96.5 C 56.8333,96.5 58.1667,96.5 59.5,96.5C 59.5,101.167 59.5,105.833 59.5,110.5C 58.1667,110.5 56.8333,110.5 55.5,110.5C 55.5,112.167 55.5,113.833 55.5,115.5C 54.8333,115.5 54.1667,115.5 53.5,115.5C 53.5,113.833 53.5,112.167 53.5,110.5C 48.6367,110.819 43.97,110.486 39.5,109.5C 45.8333,109.5 52.1667,109.5 58.5,109.5C 58.5,105.5 58.5,101.5 58.5,97.5C 57.209,97.7373 56.209,97.404 55.5,96.5 Z"/></g>
<g><path style="opacity:1" fill="#f3c0d9" d="M 219.5,112.5 C 215.833,112.5 212.167,112.5 208.5,112.5C 208.771,114.38 208.104,115.713 206.5,116.5C 203.833,116.5 201.167,116.5 198.5,116.5C 198.232,114.901 198.566,113.568 199.5,112.5C 199.5,113.5 199.5,114.5 199.5,115.5C 201.857,115.663 204.19,115.497 206.5,115C 207.337,113.989 207.67,112.822 207.5,111.5C 211.702,111.183 215.702,111.517 219.5,112.5 Z"/></g>
<g><path style="opacity:1" fill="#9fd6d2" d="M 137.5,106.5 C 138.725,110.388 141.059,113.388 144.5,115.5C 143.183,115.179 141.849,114.846 140.5,114.5C 134.872,116.284 129.205,117.951 123.5,119.5C 121.292,119.249 119.125,119.249 117,119.5C 113.992,122.008 110.825,124.008 107.5,125.5C 101.434,125.38 96.1002,127.213 91.5,131C 83.8635,133.187 76.1968,136.02 68.5,139.5C 67.914,139.291 67.414,138.957 67,138.5C 65.7817,140.019 64.2817,141.186 62.5,142C 59.666,142.045 57.166,142.879 55,144.5C 54.6667,144.167 54.3333,143.833 54,143.5C 53.5304,144.577 53.6971,145.577 54.5,146.5C 52.5026,146.898 50.3359,147.898 48,149.5C 46.5936,148.586 45.0936,147.92 43.5,147.5C 40.8333,145.5 38.5,143.167 36.5,140.5C 38.0936,140.92 39.5936,141.586 41,142.5C 44.6271,141.407 47.6271,139.407 50,136.5C 51.8284,143.12 52.6617,143.12 52.5,136.5C 53.1924,137.025 53.6924,137.692 54,138.5C 56.7792,135.544 59.6126,132.711 62.5,130C 64.7173,128.725 67.0506,127.725 69.5,127C 70.1258,126.25 70.6258,125.416 71,124.5C 72.5494,127.003 74.2161,127.003 76,124.5C 76.3333,125.5 76.6667,126.5 77,127.5C 82.0842,122.375 88.2509,119.542 95.5,119C 96.9423,118.623 97.9423,117.79 98.5,116.5C 100.288,116.785 101.955,116.452 103.5,115.5C 105.307,112.647 107.641,111.98 110.5,113.5C 111.058,114.79 112.058,115.623 113.5,116C 121.747,118.084 128.413,115.917 133.5,109.5C 134.067,105.503 134.9,101.503 136,97.5C 136.181,100.695 136.681,103.695 137.5,106.5 Z"/></g>
<g><path style="opacity:1" fill="#f0a6cb" d="M 219.5,112.5 C 219.5,113.833 219.5,115.167 219.5,116.5C 221.167,116.5 222.833,116.5 224.5,116.5C 211.09,139.909 197.59,163.242 184,186.5C 183.472,187.816 183.972,188.483 185.5,188.5C 182.5,189.833 179.5,191.167 176.5,192.5C 173.572,192.565 170.905,193.232 168.5,194.5C 168.167,194.5 167.833,194.5 167.5,194.5C 165.5,194.5 163.5,194.5 161.5,194.5C 162.979,191.542 164.479,188.542 166,185.5C 166.893,186.711 167.726,186.711 168.5,185.5C 168.069,184.707 167.735,183.873 167.5,183C 172.142,174.657 177.309,165.49 183,155.5C 185.794,153.365 187.294,150.865 187.5,148C 192.79,140.688 197.29,132.855 201,124.5C 202.183,125.731 203.349,125.731 204.5,124.5C 203.147,123.476 202.48,122.143 202.5,120.5C 204.264,119.674 205.598,118.341 206.5,116.5C 208.104,115.713 208.771,114.38 208.5,112.5C 212.167,112.5 215.833,112.5 219.5,112.5 Z"/></g>
<g><path style="opacity:1" fill="#99ddd5" d="M 169.5,115.5 C 163.462,114.751 158.462,116.584 154.5,121C 153.216,121.684 152.049,121.517 151,120.5C 149.316,122.701 147.316,123.367 145,122.5C 144.167,123.333 143.333,124.167 142.5,125C 139.471,125.539 136.471,126.206 133.5,127C 129.88,131.316 125.714,132.816 121,131.5C 119.833,132.667 118.667,133.833 117.5,135C 113.205,135.912 108.872,136.579 104.5,137C 103.643,137.689 102.977,138.522 102.5,139.5C 94.1809,141.317 86.5142,144.483 79.5,149C 74.1973,149.559 69.1973,151.059 64.5,153.5C 62.6552,152.605 61.3218,153.272 60.5,155.5C 59.0256,154.564 58.0256,153.23 57.5,151.5C 59.5988,148.744 62.2655,147.911 65.5,149C 66.7433,147.846 67.7433,146.512 68.5,145C 73.092,142.321 77.592,139.488 82,136.5C 82.3879,137.428 83.0546,138.095 84,138.5C 85.9439,137.561 87.6106,136.227 89,134.5C 89.4922,135.549 89.3256,136.549 88.5,137.5C 89.0016,138.521 89.6683,138.688 90.5,138C 93.1049,134.897 96.4383,132.897 100.5,132C 102.866,129.826 105.199,127.66 107.5,125.5C 110.825,124.008 113.992,122.008 117,119.5C 119.125,119.249 121.292,119.249 123.5,119.5C 129.205,117.951 134.872,116.284 140.5,114.5C 141.849,114.846 143.183,115.179 144.5,115.5C 146.134,116.161 147.967,116.494 150,116.5C 158.368,116.913 163.868,113.246 166.5,105.5C 167.322,103.611 168.155,101.611 169,99.5C 169.499,104.823 169.666,110.156 169.5,115.5 Z"/></g>
<g><path style="opacity:1" fill="#e4acca" d="M 195.5,110.5 C 179.638,139.571 163.305,168.238 146.5,196.5C 142.692,196.837 139.026,196.337 135.5,195C 142.304,183.888 148.971,172.722 155.5,161.5C 156.833,159.833 158.167,158.167 159.5,156.5C 159.5,155.833 159.833,155.5 160.5,155.5C 163.243,153.761 165.243,151.427 166.5,148.5C 167.906,148.027 168.573,147.027 168.5,145.5C 169.906,145.027 170.573,144.027 170.5,142.5C 170.5,141.833 170.5,141.167 170.5,140.5C 170.833,140.5 171.167,140.5 171.5,140.5C 173.834,138.824 174.834,136.491 174.5,133.5C 175.15,131.565 175.483,129.565 175.5,127.5C 176.434,126.432 176.768,125.099 176.5,123.5C 178.199,121.434 179.532,119.1 180.5,116.5C 186.067,116.085 191.067,114.085 195.5,110.5 Z"/></g>
<g><path style="opacity:1" fill="#f7c3dc" d="M 228.5,111.5 C 229.451,112.919 229.784,114.585 229.5,116.5C 227.833,116.5 226.167,116.5 224.5,116.5C 222.833,116.5 221.167,116.5 219.5,116.5C 219.5,115.167 219.5,113.833 219.5,112.5C 220.404,113.209 220.737,114.209 220.5,115.5C 223.167,115.5 225.833,115.5 228.5,115.5C 228.5,114.167 228.5,112.833 228.5,111.5 Z"/></g>
<g><path style="opacity:1" fill="#aec6c9" d="M 31.5,115.5 C 38.8333,115.5 46.1667,115.5 53.5,115.5C 49.9792,116.166 46.3125,116.833 42.5,117.5C 42.9867,118.446 43.3201,119.446 43.5,120.5C 42.455,122.205 41.1217,123.705 39.5,125C 35.963,126.281 32.7963,128.114 30,130.5C 29.3292,129.748 28.4959,129.414 27.5,129.5C 26.1667,127.167 24.8333,124.833 23.5,122.5C 28.5388,122.313 32.8721,120.48 36.5,117C 34.6183,116.802 32.9516,116.302 31.5,115.5 Z"/></g>
<g><path style="opacity:1" fill="#91e1d6" d="M 178.5,117.5 C 177.637,119.421 176.971,121.421 176.5,123.5C 176.768,125.099 176.434,126.432 175.5,127.5C 175.66,125.801 175.494,124.134 175,122.5C 169.991,124.578 164.824,126.412 159.5,128C 158.78,130.122 157.613,130.622 156,129.5C 154.055,130.863 151.888,131.697 149.5,132C 148.122,133.713 146.455,135.047 144.5,136C 137.35,137.47 130.683,139.47 124.5,142C 123.5,143 122.5,144 121.5,145C 116.122,146.03 111.122,147.863 106.5,150.5C 101.313,149.838 96.6463,151.338 92.5,155C 89.5682,155.953 86.5682,156.453 83.5,156.5C 87.4489,154.985 90.7822,152.485 93.5,149C 98.2865,148.352 102.453,146.519 106,143.5C 106.561,144.022 107.228,144.355 108,144.5C 110.111,143.528 112.278,142.695 114.5,142C 118.644,139.2 122.81,136.366 127,133.5C 129.147,134.476 131.314,134.309 133.5,133C 135.395,131.398 137.395,129.898 139.5,128.5C 144.138,129.399 148.138,128.065 151.5,124.5C 152.192,125.025 152.692,125.692 153,126.5C 157.8,124.027 162.3,121.193 166.5,118C 170.611,116.472 174.611,116.306 178.5,117.5 Z"/></g>
<g><path style="opacity:1" fill="#c2c2cf" d="M 179.5,116.5 C 179.833,116.5 180.167,116.5 180.5,116.5C 179.532,119.1 178.199,121.434 176.5,123.5C 176.971,121.421 177.637,119.421 178.5,117.5C 179.167,117.5 179.5,117.167 179.5,116.5 Z"/></g>
<g><path style="opacity:1" fill="#eba8ca" d="M 202.5,120.5 C 202.48,122.143 203.147,123.476 204.5,124.5C 203.349,125.731 202.183,125.731 201,124.5C 197.29,132.855 192.79,140.688 187.5,148C 187.294,150.865 185.794,153.365 183,155.5C 177.309,165.49 172.142,174.657 167.5,183C 167.735,183.873 168.069,184.707 168.5,185.5C 167.726,186.711 166.893,186.711 166,185.5C 164.479,188.542 162.979,191.542 161.5,194.5C 163.5,194.5 165.5,194.5 167.5,194.5C 165.735,195.461 163.735,195.795 161.5,195.5C 159.167,195.5 156.833,195.5 154.5,195.5C 154.325,192.671 155.658,191.004 158.5,190.5C 158.291,189.914 157.957,189.414 157.5,189C 161.885,181.674 166.052,174.174 170,166.5C 171.205,165.929 172.372,165.262 173.5,164.5C 173.291,163.914 172.957,163.414 172.5,163C 173.886,159.725 175.886,156.891 178.5,154.5C 178.291,153.914 177.957,153.414 177.5,153C 182.276,146.629 186.443,139.795 190,132.5C 191.074,131.382 192.24,130.382 193.5,129.5C 193.291,128.914 192.957,128.414 192.5,128C 194.628,126.333 195.961,124.166 196.5,121.5C 198.258,120.872 199.758,119.872 201,118.5C 201.278,119.416 201.778,120.082 202.5,120.5 Z"/></g>
<g><path style="opacity:1" fill="#8ce4d6" d="M 175.5,127.5 C 175.483,129.565 175.15,131.565 174.5,133.5C 172.935,135.509 171.935,137.843 171.5,140.5C 171.167,140.5 170.833,140.5 170.5,140.5C 170.646,138.058 169.813,137.391 168,138.5C 167.275,136.842 166.108,136.342 164.5,137C 156.517,141.01 148.517,144.344 140.5,147C 139.5,148 138.5,149 137.5,150C 132.5,151 127.5,152 122.5,153C 119.114,155.351 115.614,157.518 112,159.5C 111.667,159.167 111.333,158.833 111,158.5C 110.097,159.701 108.931,160.535 107.5,161C 100.585,162.116 93.9181,163.95 87.5,166.5C 86.0186,167.48 84.6853,168.647 83.5,170C 84.056,170.383 84.3893,170.883 84.5,171.5C 79.1912,169.735 74.1912,167.402 69.5,164.5C 70.1837,162.815 71.517,161.815 73.5,161.5C 73.8333,162.167 74.1667,162.833 74.5,163.5C 76.6847,159.966 79.6847,157.633 83.5,156.5C 86.5682,156.453 89.5682,155.953 92.5,155C 96.6463,151.338 101.313,149.838 106.5,150.5C 111.122,147.863 116.122,146.03 121.5,145C 122.5,144 123.5,143 124.5,142C 130.683,139.47 137.35,137.47 144.5,136C 146.455,135.047 148.122,133.713 149.5,132C 151.888,131.697 154.055,130.863 156,129.5C 157.613,130.622 158.78,130.122 159.5,128C 164.824,126.412 169.991,124.578 175,122.5C 175.494,124.134 175.66,125.801 175.5,127.5 Z"/></g>
<g><path style="opacity:1" fill="#b8a9b1" d="M 254.5,118.5 C 257.5,122.508 258.166,126.841 256.5,131.5C 256.575,127.019 255.908,122.686 254.5,118.5 Z"/></g>
<g><path style="opacity:1" fill="#a7c9c9" d="M 53.5,115.5 C 54.1667,115.5 54.8333,115.5 55.5,115.5C 58.9619,116.482 62.6286,116.815 66.5,116.5C 60.3304,119.902 53.6638,122.235 46.5,123.5C 46.7824,126.347 46.7824,129.013 46.5,131.5C 45.914,131.291 45.414,130.957 45,130.5C 41.4792,133.209 37.6459,135.209 33.5,136.5C 30.7997,134.766 28.7997,132.432 27.5,129.5C 28.4959,129.414 29.3292,129.748 30,130.5C 32.7963,128.114 35.963,126.281 39.5,125C 41.1217,123.705 42.455,122.205 43.5,120.5C 43.3201,119.446 42.9867,118.446 42.5,117.5C 46.3125,116.833 49.9792,116.166 53.5,115.5 Z"/></g>
<g><path style="opacity:1" fill="#9ad9d3" d="M 107.5,125.5 C 105.199,127.66 102.866,129.826 100.5,132C 96.4383,132.897 93.1049,134.897 90.5,138C 89.6683,138.688 89.0016,138.521 88.5,137.5C 89.3256,136.549 89.4922,135.549 89,134.5C 87.6106,136.227 85.9439,137.561 84,138.5C 83.0546,138.095 82.3879,137.428 82,136.5C 77.592,139.488 73.092,142.321 68.5,145C 67.7433,146.512 66.7433,147.846 65.5,149C 62.2655,147.911 59.5988,148.744 57.5,151.5C 56.7368,149.632 55.7368,147.965 54.5,146.5C 53.6971,145.577 53.5304,144.577 54,143.5C 54.3333,143.833 54.6667,144.167 55,144.5C 57.166,142.879 59.666,142.045 62.5,142C 64.2817,141.186 65.7817,140.019 67,138.5C 67.414,138.957 67.914,139.291 68.5,139.5C 76.1968,136.02 83.8635,133.187 91.5,131C 96.1002,127.213 101.434,125.38 107.5,125.5 Z"/></g>
<g><path style="opacity:1" fill="#87e7d7" d="M 170.5,140.5 C 170.5,141.167 170.5,141.833 170.5,142.5C 169.094,142.973 168.427,143.973 168.5,145.5C 167.094,145.973 166.427,146.973 166.5,148.5C 166.167,148.5 165.833,148.5 165.5,148.5C 165.649,147.448 165.483,146.448 165,145.5C 162.597,146.781 160.763,148.614 159.5,151C 153.833,153.167 148.167,155.333 142.5,157.5C 141.914,157.291 141.414,156.957 141,156.5C 136.039,159.208 131.206,162.208 126.5,165.5C 123.226,164.922 120.059,165.589 117,167.5C 116.228,167.355 115.561,167.022 115,166.5C 110.359,169.499 105.526,171.999 100.5,174C 108.08,175.396 115.747,175.896 123.5,175.5C 123.158,176.338 122.492,176.672 121.5,176.5C 119.833,176.5 118.167,176.5 116.5,176.5C 110.409,176.789 104.409,176.455 98.5,175.5C 96.4855,174.076 94.1522,173.41 91.5,173.5C 88.9902,173.073 86.6568,172.407 84.5,171.5C 84.3893,170.883 84.056,170.383 83.5,170C 84.6853,168.647 86.0186,167.48 87.5,166.5C 93.9181,163.95 100.585,162.116 107.5,161C 108.931,160.535 110.097,159.701 111,158.5C 111.333,158.833 111.667,159.167 112,159.5C 115.614,157.518 119.114,155.351 122.5,153C 127.5,152 132.5,151 137.5,150C 138.5,149 139.5,148 140.5,147C 148.517,144.344 156.517,141.01 164.5,137C 166.108,136.342 167.275,136.842 168,138.5C 169.813,137.391 170.646,138.058 170.5,140.5 Z"/></g>
<g><path style="opacity:1" fill="#c8bece" d="M 174.5,133.5 C 174.834,136.491 173.834,138.824 171.5,140.5C 171.935,137.843 172.935,135.509 174.5,133.5 Z"/></g>
<g><path style="opacity:1" fill="#aeaaac" d="M 255.5,136.5 C 255.245,138.967 254.245,140.967 252.5,142.5C 252.755,140.033 253.755,138.033 255.5,136.5 Z"/></g>
<g><path style="opacity:1" fill="#93dfd4" d="M 169.5,115.5 C 169.833,115.5 170.167,115.5 170.5,115.5C 173.713,115.19 176.713,115.523 179.5,116.5C 179.5,117.167 179.167,117.5 178.5,117.5C 174.611,116.306 170.611,116.472 166.5,118C 162.3,121.193 157.8,124.027 153,126.5C 152.692,125.692 152.192,125.025 151.5,124.5C 148.138,128.065 144.138,129.399 139.5,128.5C 137.395,129.898 135.395,131.398 133.5,133C 131.314,134.309 129.147,134.476 127,133.5C 122.81,136.366 118.644,139.2 114.5,142C 112.278,142.695 110.111,143.528 108,144.5C 107.228,144.355 106.561,144.022 106,143.5C 102.453,146.519 98.2865,148.352 93.5,149C 90.7822,152.485 87.4489,154.985 83.5,156.5C 79.6847,157.633 76.6847,159.966 74.5,163.5C 74.1667,162.833 73.8333,162.167 73.5,161.5C 71.517,161.815 70.1837,162.815 69.5,164.5C 68.8333,164.5 68.1667,164.5 67.5,164.5C 66.5084,164.672 65.8417,164.338 65.5,163.5C 63.8333,160.833 62.1667,158.167 60.5,155.5C 61.3218,153.272 62.6552,152.605 64.5,153.5C 69.1973,151.059 74.1973,149.559 79.5,149C 86.5142,144.483 94.1809,141.317 102.5,139.5C 102.977,138.522 103.643,137.689 104.5,137C 108.872,136.579 113.205,135.912 117.5,135C 118.667,133.833 119.833,132.667 121,131.5C 125.714,132.816 129.88,131.316 133.5,127C 136.471,126.206 139.471,125.539 142.5,125C 143.333,124.167 144.167,123.333 145,122.5C 147.316,123.367 149.316,122.701 151,120.5C 152.049,121.517 153.216,121.684 154.5,121C 158.462,116.584 163.462,114.751 169.5,115.5 Z"/></g>
<g><path style="opacity:1" fill="#c4c1cf" d="M 170.5,142.5 C 170.573,144.027 169.906,145.027 168.5,145.5C 168.427,143.973 169.094,142.973 170.5,142.5 Z"/></g>
<g><path style="opacity:1" fill="#83ead8" d="M 165.5,148.5 C 163.42,150.573 161.754,152.907 160.5,155.5C 159.833,155.5 159.5,155.833 159.5,156.5C 156.911,157.419 154.911,159.086 153.5,161.5C 151.223,162.449 149.223,163.782 147.5,165.5C 145.973,165.427 144.973,166.094 144.5,167.5C 141.669,168.079 139.336,169.412 137.5,171.5C 136.833,171.5 136.167,171.5 135.5,171.5C 133.033,171.755 131.033,172.755 129.5,174.5C 127.565,175.15 125.565,175.483 123.5,175.5C 115.747,175.896 108.08,175.396 100.5,174C 105.526,171.999 110.359,169.499 115,166.5C 115.561,167.022 116.228,167.355 117,167.5C 120.059,165.589 123.226,164.922 126.5,165.5C 131.206,162.208 136.039,159.208 141,156.5C 141.414,156.957 141.914,157.291 142.5,157.5C 148.167,155.333 153.833,153.167 159.5,151C 160.763,148.614 162.597,146.781 165,145.5C 165.483,146.448 165.649,147.448 165.5,148.5 Z"/></g>
<g><path style="opacity:1" fill="#9baca5" d="M 251.5,144.5 C 251.573,146.027 250.906,147.027 249.5,147.5C 249.427,145.973 250.094,144.973 251.5,144.5 Z"/></g>
<g><path style="opacity:1" fill="#8fd1c6" d="M 54.5,146.5 C 55.7368,147.965 56.7368,149.632 57.5,151.5C 58.0256,153.23 59.0256,154.564 60.5,155.5C 62.1667,158.167 63.8333,160.833 65.5,163.5C 57.3212,159.32 49.9878,153.987 43.5,147.5C 45.0936,147.92 46.5936,148.586 48,149.5C 50.3359,147.898 52.5026,146.898 54.5,146.5 Z"/></g>
<g><path style="opacity:1" fill="#c7bfce" d="M 168.5,145.5 C 168.573,147.027 167.906,148.027 166.5,148.5C 166.427,146.973 167.094,145.973 168.5,145.5 Z"/></g>
<g><path style="opacity:1" fill="#8aad9e" d="M 249.5,147.5 C 249.269,150.063 247.935,151.73 245.5,152.5C 246.08,150.251 247.413,148.585 249.5,147.5 Z"/></g>
<g><path style="opacity:1" fill="#c8bece" d="M 165.5,148.5 C 165.833,148.5 166.167,148.5 166.5,148.5C 165.243,151.427 163.243,153.761 160.5,155.5C 161.754,152.907 163.42,150.573 165.5,148.5 Z"/></g>
<g><path style="opacity:1" fill="#99aca4" d="M 245.5,152.5 C 243.431,155.573 240.764,157.906 237.5,159.5C 239.569,156.427 242.236,154.094 245.5,152.5 Z"/></g>
<g><path style="opacity:1" fill="#ccbbcd" d="M 159.5,156.5 C 158.167,158.167 156.833,159.833 155.5,161.5C 154.833,161.5 154.167,161.5 153.5,161.5C 154.911,159.086 156.911,157.419 159.5,156.5 Z"/></g>
<g><path style="opacity:1" fill="#91ada1" d="M 237.5,159.5 C 236.415,161.587 234.749,162.92 232.5,163.5C 233.585,161.413 235.251,160.08 237.5,159.5 Z"/></g>
<g><path style="opacity:1" fill="#95aca2" d="M 232.5,163.5 C 232.027,164.906 231.027,165.573 229.5,165.5C 229.973,164.094 230.973,163.427 232.5,163.5 Z"/></g>
<g><path style="opacity:1" fill="#c4bfce" d="M 147.5,165.5 C 147.027,166.906 146.027,167.573 144.5,167.5C 144.973,166.094 145.973,165.427 147.5,165.5 Z"/></g>
<g><path style="opacity:1" fill="#9baca6" d="M 229.5,165.5 C 229.027,166.906 228.027,167.573 226.5,167.5C 226.973,166.094 227.973,165.427 229.5,165.5 Z"/></g>
<g><path style="opacity:1" fill="#99aca4" d="M 226.5,167.5 C 226.027,168.906 225.027,169.573 223.5,169.5C 223.973,168.094 224.973,167.427 226.5,167.5 Z"/></g>
<g><path style="opacity:1" fill="#d8afc8" d="M 153.5,161.5 C 154.167,161.5 154.833,161.5 155.5,161.5C 148.971,172.722 142.304,183.888 135.5,195C 139.026,196.337 142.692,196.837 146.5,196.5C 148.833,196.5 151.167,196.5 153.5,196.5C 146.963,197.774 140.296,197.774 133.5,196.5C 130.85,195.753 128.184,194.753 125.5,193.5C 130.038,186.421 134.038,179.088 137.5,171.5C 139.336,169.412 141.669,168.079 144.5,167.5C 146.027,167.573 147.027,166.906 147.5,165.5C 149.223,163.782 151.223,162.449 153.5,161.5 Z"/></g>
<g><path style="opacity:1" fill="#97aca4" d="M 223.5,169.5 C 223.027,170.906 222.027,171.573 220.5,171.5C 220.973,170.094 221.973,169.427 223.5,169.5 Z"/></g>
<g><path style="opacity:1" fill="#abc2c4" d="M 67.5,164.5 C 68.1667,164.5 68.8333,164.5 69.5,164.5C 74.1912,167.402 79.1912,169.735 84.5,171.5C 86.6568,172.407 88.9902,173.073 91.5,173.5C 91.5,173.833 91.5,174.167 91.5,174.5C 86.4795,174.578 85.1462,176.578 87.5,180.5C 79.9622,176.3 73.2956,170.966 67.5,164.5 Z"/></g>
<g><path style="opacity:1" fill="#b7c7cf" d="M 135.5,171.5 C 133.967,173.245 131.967,174.245 129.5,174.5C 131.033,172.755 133.033,171.755 135.5,171.5 Z"/></g>
<g><path style="opacity:1" fill="#d3b1c8" d="M 135.5,171.5 C 136.167,171.5 136.833,171.5 137.5,171.5C 134.038,179.088 130.038,186.421 125.5,193.5C 128.184,194.753 130.85,195.753 133.5,196.5C 130.391,196.736 127.391,196.403 124.5,195.5C 122.485,194.076 120.152,193.41 117.5,193.5C 115.5,192.5 113.5,191.5 111.5,190.5C 113.548,186.14 115.548,181.807 117.5,177.5C 119.099,177.768 120.432,177.434 121.5,176.5C 122.492,176.672 123.158,176.338 123.5,175.5C 125.565,175.483 127.565,175.15 129.5,174.5C 131.967,174.245 133.967,173.245 135.5,171.5 Z"/></g>
<g><path style="opacity:1" fill="#9aaca5" d="M 218.5,172.5 C 218.027,173.906 217.027,174.573 215.5,174.5C 215.973,173.094 216.973,172.427 218.5,172.5 Z"/></g>
<g><path style="opacity:1" fill="#9bd7d0" d="M 91.5,174.5 C 91.5,174.167 91.5,173.833 91.5,173.5C 94.1522,173.41 96.4855,174.076 98.5,175.5C 96.139,175.326 93.8056,174.993 91.5,174.5 Z"/></g>
<g><path style="opacity:1" fill="#b9bcc6" d="M 91.5,174.5 C 93.8056,174.993 96.139,175.326 98.5,175.5C 104.409,176.455 110.409,176.789 116.5,176.5C 114.393,177.468 112.059,177.802 109.5,177.5C 103.083,176.199 98.7495,178.533 96.5,184.5C 96.8627,185.183 97.1961,185.85 97.5,186.5C 93.827,185 90.4937,183 87.5,180.5C 85.1462,176.578 86.4795,174.578 91.5,174.5 Z"/></g>
<g><path style="opacity:1" fill="#95ada2" d="M 213.5,175.5 C 212.817,177.176 211.483,177.843 209.5,177.5C 210.514,176.326 211.847,175.66 213.5,175.5 Z"/></g>
<g><path style="opacity:1" fill="#c2b8c6" d="M 109.5,177.5 C 106.822,180.332 104.488,183.499 102.5,187C 103.858,187.934 105.192,188.768 106.5,189.5C 103.345,189.023 100.345,188.023 97.5,186.5C 97.1961,185.85 96.8627,185.183 96.5,184.5C 98.7495,178.533 103.083,176.199 109.5,177.5 Z"/></g>
<g><path style="opacity:1" fill="#cab6c8" d="M 116.5,176.5 C 118.167,176.5 119.833,176.5 121.5,176.5C 120.432,177.434 119.099,177.768 117.5,177.5C 115.548,181.807 113.548,186.14 111.5,190.5C 110.167,190.5 108.833,190.5 107.5,190.5C 106.833,190.5 106.5,190.167 106.5,189.5C 105.192,188.768 103.858,187.934 102.5,187C 104.488,183.499 106.822,180.332 109.5,177.5C 112.059,177.802 114.393,177.468 116.5,176.5 Z"/></g>
<g><path style="opacity:1" fill="#a5abaa" d="M 209.5,177.5 C 209.027,178.906 208.027,179.573 206.5,179.5C 206.973,178.094 207.973,177.427 209.5,177.5 Z"/></g>
<g><path style="opacity:1" fill="#95ada3" d="M 202.5,181.5 C 201.817,183.176 200.483,183.843 198.5,183.5C 199.514,182.326 200.847,181.66 202.5,181.5 Z"/></g>
<g><path style="opacity:1" fill="#9baca5" d="M 196.5,184.5 C 196.027,185.906 195.027,186.573 193.5,186.5C 193.973,185.094 194.973,184.427 196.5,184.5 Z"/></g>
<g><path style="opacity:1" fill="#a3aca9" d="M 191.5,186.5 C 190.817,188.176 189.483,188.843 187.5,188.5C 188.514,187.326 189.847,186.66 191.5,186.5 Z"/></g>
<g><path style="opacity:1" fill="#a2b2b0" d="M 107.5,190.5 C 108.833,190.5 110.167,190.5 111.5,190.5C 113.5,191.5 115.5,192.5 117.5,193.5C 113.838,193.277 110.505,192.277 107.5,190.5 Z"/></g>
<g><path style="opacity:1" fill="#a0aca8" d="M 185.5,188.5 C 186.167,188.5 186.833,188.5 187.5,188.5C 184.374,190.99 180.708,192.323 176.5,192.5C 179.5,191.167 182.5,189.833 185.5,188.5 Z"/></g>
<g><path style="opacity:1" fill="#ababad" d="M 176.5,192.5 C 174.162,194.04 171.495,194.706 168.5,194.5C 170.905,193.232 173.572,192.565 176.5,192.5 Z"/></g>
<g><path style="opacity:1" fill="#9bb0aa" d="M 117.5,193.5 C 120.152,193.41 122.485,194.076 124.5,195.5C 121.848,195.59 119.515,194.924 117.5,193.5 Z"/></g>
</svg>
